# xmcd
#
# Track frame offsets:
#	150
#	11397
#	35295
#	56355
#	77680
#	100577
#	118212
#	123915
#	144142
#	161980
#	185412
#	203272
#	222295
#
# Disc length: 3334 seconds
#
# Revision: 1
# Processed by: cddbd v1.5.2PL0 Copyright (c) Steve Scherf et al.
# Submitted via: audiograbber 1.83.01
#
DISCID=9f0d040d
DTITLE=Mike Pritchard's Cat House Blues - Cold Jealous Fingers
DYEAR=1993
DGENRE=
TTITLE0=Texas Boy
TTITLE1=Jacqueline
TTITLE2=Good Day For Running
TTITLE3=I A M
TTITLE4=Down In Mexico
TTITLE5=Good Thang
TTITLE6=About Time
TTITLE7=Like A Stone
TTITLE8=Running Down The Alley
TTITLE9=Tradition
TTITLE10=Wild Thing
TTITLE11=Can't Take It Nomore
TTITLE12=Cold Jealous Fingers
EXTD=
EXTT0=
EXTT1=
EXTT2=
EXTT3=
EXTT4=
EXTT5=
EXTT6=
EXTT7=
EXTT8=
EXTT9=
EXTT10=
EXTT11=
EXTT12=
PLAYORDER=
